<?xml version="1.0" encoding="UTF-8"?>
<svg
  width="150"
  height="150"
  viewBox="0 0 150 150"
  xmlns="http://www.w3.org/2000/svg">
	<rect
	   width="150"
	   height="150"
	   fill="#4586db"
	   id="rect"/>
	<path
	   d="m 53,15 c -2.216,0 -4,1.784 -4,4 v 44 c 0,2.216 1.784,4 4,4 h 44 c 2.216,0 4,-1.784 4,-4 V 19 c 0,-2.216 -1.784,-4 -4,-4 z m -8,68 c -0.636726,0 -1.273046,0.430463 -1.760938,1.292187 L 15.648438,133.02344 C 15.326108,133.59274 15.109383,134.27703 15,135 h 60 c -0.109385,-0.72297 -0.32611,-1.40726 -0.648438,-1.97656 L 46.760938,84.292187 C 46.273046,83.430464 45.636727,83 45,83 Z m 64,0 a 26,26 0 0 0 -26,26 26,26 0 0 0 26,26 26,26 0 0 0 26,-26 26,26 0 0 0 -26,-26 z"
	   fill="#ffffff"
	   id="class"/>
</svg>

